<svg width="512" height="512" viewBox="0 0 512 512" fill="none" xmlns="http://www.w3.org/2000/svg">
<path d="M258.53 71.003L257.806 71.001C257.796 71.001 257.788 71.001 257.778 71.001C252.268 71.001 247.793 75.46 247.778 80.974C247.778 80.982 247.778 80.99 247.778 80.998C247.776 86.51 252.236 90.986 257.751 91.001L258.476 91.003C258.485 91.003 258.494 91.003 258.503 91.003C264.013 91.003 268.488 86.544 268.503 81.03C268.503 81.022 268.503 81.014 268.503 81.006C268.505 75.494 264.045 71.018 258.53 71.003Z" fill="#FF0000"/>
<path d="M501.391 133.108C494.825 108.143 475.456 88.4818 450.849 81.7978C425.474 74.8868 354.729 72.3418 299.849 71.4248C294.359 71.3498 289.775 75.7348 289.683 81.2568C289.591 86.7788 293.993 91.3308 299.515 91.4228C375.475 92.6928 427.353 96.1278 445.6 101.097C463.33 105.913 477.297 120.128 482.05 138.201C491.88 175.484 492 255.198 492 255.998C492 256.799 491.88 336.513 482.049 373.802C477.297 391.869 463.33 406.084 445.594 410.902C408.946 420.882 257.525 420.999 256 420.999C254.475 420.999 103.054 420.881 66.4 410.9C48.67 406.084 34.703 391.869 29.95 373.796C20.12 336.513 20 256.799 20 255.999C20 255.198 20.12 175.484 29.951 138.196C34.703 120.129 48.67 105.914 66.406 101.096C85.053 96.0178 138.465 92.5588 216.805 91.3538C222.327 91.2698 226.734 86.7238 226.65 81.2018C226.565 75.6798 222.005 71.3088 216.497 71.3568C159.928 72.2258 87.058 74.7438 61.157 81.7968C36.544 88.4818 17.175 108.144 10.611 133.103C0.121 172.891 0 252.624 0 255.999C0 259.374 0.121 339.107 10.609 378.889C17.175 403.854 36.544 423.515 61.151 430.199C100.359 440.876 249.664 440.999 256 440.999C262.336 440.999 411.641 440.876 450.843 430.201C475.456 423.516 494.825 403.854 501.389 378.895C511.879 339.107 512 259.374 512 255.999C512 252.624 511.879 172.891 501.391 133.108Z" fill="#FF0000"/>
<path d="M58 229.521C52.477 229.521 48 233.998 48 239.521V321.021C48 326.544 52.477 331.021 58 331.021C63.523 331.021 68 326.544 68 321.021V239.521C68 233.998 63.523 229.521 58 229.521Z" fill="#FF0000"/>
<path d="M58 184.021C52.477 184.021 48 188.498 48 194.021V194.139C48 199.662 52.477 204.139 58 204.139C63.523 204.139 68 199.662 68 194.139V194.021C68 188.498 63.523 184.021 58 184.021Z" fill="#FF0000"/>
<path d="M337.106 248.873L213.106 176.873C210.012 175.076 206.195 175.069 203.095 176.854C199.995 178.639 198.084 181.944 198.084 185.521V329.521C198.084 333.099 199.995 336.403 203.095 338.188C204.639 339.077 206.361 339.521 208.084 339.521C209.819 339.521 211.554 339.071 213.106 338.169L337.106 266.169C340.189 264.379 342.085 261.085 342.085 257.521C342.085 253.957 340.188 250.663 337.106 248.873ZM218.084 312.151V202.891L312.169 257.521L218.084 312.151Z" fill="#FF0000"/>
</svg>
